# xmcd CD database file
#
# Track frame offsets:
#	150
#	11886
#	34540
#	52638
#	65618
#	85950
#	103942
#	127530
#	143500
#	162443
#	184606
#	207763
#
# Disc length: 2972 seconds
#
# Revision: 4
# Processed by: cddbd v1.5.2PL0 Copyright (c) Steve Scherf et al.
# Submitted via: CDex 1.70beta2
#
DISCID=930b9a0c
DTITLE=Various Artist - Best of Blues Volume 4
DYEAR=2004
DGENRE=Blues
TTITLE0=B.B. King - Payin' The Cost To Be The Boss
TTITLE1=Buddy Guy and Junior Wells - Blue Monday
TTITLE2=Charles Brown - Driftin' Blues
TTITLE3=Charles Brown - Rockin' Blues
TTITLE4=Buddy Guy and Junior Wells - Every Day I Have The Blues
TTITLE5=Lightnin' Hopkins - Bring Me My Shotgun
TTITLE6=B.B. King - You've Done Lost A Good Thing
TTITLE7=Memphis Slim - Cow Cow Blues
TTITLE8=Johnny Otis - Slo Fuse
TTITLE9=James Cotton Band - Boogie Thang
TTITLE10=Marvin Gaye (Live) - Inner City Blues
TTITLE11=Pee Wee Crayton - My Baby's On Line
EXTD=YEAR: 2004
EXTT0=
EXTT1=
EXTT2=
EXTT3=
EXTT4=
EXTT5=
EXTT6=
EXTT7=
EXTT8=
EXTT9=
EXTT10=
EXTT11=
PLAYORDER=
